/* XPM */
static char * add1_xpm[] = {
"32 39 5 1",
" 	c None",
".	c #06A70D",
"+	c #FFFFFF",
"@	c #000000",
"#	c #D78800",
"   .....                        ",
"    ....                        ",
"    ....                        ",
"    ....                        ",
"............+@@@@@@@@@          ",
"............+++++++++@          ",
"............+++++++++@          ",
"............+++++++++@          ",
"  ++....+++++@@@@@@++@          ",
"  @+....+++++++++++++@          ",
"  @+....+++++++++++++@    @@@   ",
"  @+....+++++++++++++@    @@@@  ",
"  @++++++@@@@@@@@@@@@@   @@@@@  ",
"  @++++++++++++++++++@   @@@@@  ",
"  @++++++++++++++++++@    @@@   ",
"  @++++++++++++++++++@    @@@   ",
"  @++@@@@@@@@@@@@@@++@    @@@   ",
"  @++++++++++++++++++@    @@@   ",
"  @++++++++++++++++++@    @@@   ",
"  @++++++++++++++++++@    @@@   ",
"  @@@@@@@@@@@@@@@@@@@@    @@@   ",
"  @++++++++++++++++++@    @@    ",
"  @++++++++++++++++++@    @@    ",
"  @++++++++++++++++++@    @@    ",
"  @++@@@@@@@@@@@@@@++@    @@    ",
"  @++++++++++++++++++@          ",
"  @++++++++++++++++++@          ",
"  @++++++++++++++++++@   @@@    ",
"  @@@@@@@@@@@@@@@@@@@@  @@@@@   ",
"  @##################@  @@@@@   ",
"  @##################@  @@@@@   ",
"  @##################@   @@@    ",
"  @##@@@@@@@@@@@@@@##@          ",
"  @##################@          ",
"  @##################@          ",
"  @##################@          ",
"  @@@@@@@@@@@@@@@@@@@@          ",
"                                ",
"                                "};
