/* XPM */
static char * add2_xpm[] = {
"32 39 6 1",
" 	c None",
".	c #06A70D",
"+	c #FFFFFF",
"@	c #000000",
"#	c #4C597E",
"$	c #D78800",
"   .....                        ",
"    ....                        ",
"    ....                        ",
"    ....                        ",
"............+@@@@@@@@@          ",
"............+++++++++@          ",
"............+++++++++@          ",
"............+++++++++@          ",
"  ++....+++++@@@@@@++@          ",
"  @+....+++++++++++++@          ",
"  @+....+++++++++++++@    @@@   ",
"  @+....+++++++++++++@    @@@@  ",
"  @++++++@@@@@@@@@@@@@   @@@@@  ",
"  @##################@   @@@@@  ",
"  @##################@    @@@   ",
"  @##################@    @@@   ",
"  @##@@@@@@@@@@@@@@##@    @@@   ",
"  @##################@    @@@   ",
"  @##################@    @@@   ",
"  @##################@    @@@   ",
"  @@@@@@@@@@@@@@@@@@@@@@@@@@@   ",
"     @$$$$$$$$$$$$$$$$$$$@@@    ",
"     @$$$$$$$$$$$$$$$$$$$@@@    ",
"     @$$$$$$$$$$$$$$$$$$$@@@    ",
"     @$$@@@@@@@@@@@@@@@$$@@@    ",
"     @$$$$$$$$$$$$$$$$$$$@      ",
"     @$$$$$$$$$$$$$$$$$$$@      ",
"     @$$$$$$$$$$$$$$$$$$$@@@    ",
"  @@@@@@@@@@@@@@@@@@@@@@@@@@@   ",
"  @++++++++++++++++++@  @@@@@   ",
"  @++++++++++++++++++@  @@@@@   ",
"  @++++++++++++++++++@   @@@    ",
"  @++@@@@@@@@@@@@@@++@          ",
"  @++++++++++++++++++@          ",
"  @++++++++++++++++++@          ",
"  @++++++++++++++++++@          ",
"  @@@@@@@@@@@@@@@@@@@@          ",
"                                ",
"                                "};
