/* XPM */
static char * suppr_xpm[] = {
"32 39 5 1",
" 	c None",
".	c #000000",
"+	c #FFFFFF",
"@	c #D70000",
"#	c #4C597E",
"                                ",
"                                ",
"                                ",
"                                ",
"  ....................          ",
"  .++++++++++++++++++.          ",
"  .++++++++++++++++++.          ",
"  .++++++++++++++++++.          ",
"  .++..............++.          ",
"  .++++++++++++++++++.          ",
"  .+++++++++++++@@+++.    ...   ",
"  .+++@@@++++++@@@+++.    ....  ",
"  .....@@......@@.....   .....  ",
"  .#####@@@###@@#####.   .....  ",
"  .######@@@#@@######.    ...   ",
"  .#######@@@@@######.    ...   ",
"  .##......@@@.....##.    ...   ",
"  .########@@@@######.    ...   ",
"  .#######@@@@@@#####.    ...   ",
"  .#######@@##@@#####.    ...   ",
"  .......@@....@@.....    ...   ",
"  .+++++@@++++++@@+++.    ..    ",
"  .+++++@@++++++@@+++.    ..    ",
"  .++++++++++++++++++.    ..    ",
"  .++..............++.    ..    ",
"  .++++++++++++++++++.          ",
"  .++++++++++++++++++.          ",
"  .++++++++++++++++++.   ...    ",
"  ....................  .....   ",
"  .++++++++++++++++++.  .....   ",
"  .++++++++++++++++++.  .....   ",
"  .++++++++++++++++++.   ...    ",
"  .++..............++.          ",
"  .++++++++++++++++++.          ",
"  .++++++++++++++++++.          ",
"  .++++++++++++++++++.          ",
"  ....................          ",
"                                ",
"                                "};
